<?xml version="1.0" encoding="utf-8"?>
<!-- Generator: Adobe Illustrator 23.0.3, SVG Export Plug-In . SVG Version: 6.00 Build 0)  -->
<svg version="1.1" id="Layer_1" xmlns="http://www.w3.org/2000/svg" xmlns:xlink="http://www.w3.org/1999/xlink" x="0px" y="0px"
	 viewBox="0 0 575.7 575.7" style="enable-background:new 0 0 575.7 575.7;" xml:space="preserve">
<style type="text/css">
	.st0{fill:#113F57;stroke:#113F57;stroke-width:17;stroke-miterlimit:10;}
	.st1{fill:#113F57;stroke:#113F57;stroke-miterlimit:10;}
	.st2{fill:#FFFFFF;stroke:#FFFFFF;stroke-miterlimit:10;}
	.st3{fill:#FFFFFF;stroke:#FFFFFF;stroke-width:3;stroke-miterlimit:10;}
	.st4{fill:#113F57;stroke:#113F57;stroke-width:3;stroke-miterlimit:10;}
</style>
<g>
	<line id="Bottom" class="st0" x1="459.6" y1="329.8" x2="437.7" y2="307.8"/>
	<line id="Bottom_3_" class="st0" x1="110.5" y1="337.5" x2="140.1" y2="307.9"/>
	<line id="Bottom_2_" class="st0" x1="112.3" y1="327.3" x2="292.4" y2="507.4"/>
	<line id="Bottom_1_" class="st0" x1="465.2" y1="323.3" x2="280.8" y2="507.8"/>
	<line id="Middle_2_" class="st0" x1="459.8" y1="287.7" x2="437.9" y2="265.8"/>
	<line id="Middle_3_" class="st0" x1="112.3" y1="294" x2="141.1" y2="265.3"/>
	<line id="Middle_1_" class="st0" x1="112" y1="282.4" x2="294" y2="464.3"/>
	<line id="Middle" class="st0" x1="465.2" y1="281.1" x2="283.8" y2="462.5"/>
	<line id="Top_2_" class="st0" x1="113.8" y1="240" x2="295.1" y2="421.3"/>
	<line id="Top" class="st0" x1="463.4" y1="240.9" x2="284.9" y2="419.4"/>
	<line id="Top_1_" class="st0" x1="284" y1="69.8" x2="465.3" y2="251.1"/>
	<line id="Top_3_" class="st0" x1="294.2" y1="68" x2="112" y2="250.3"/>
</g>
<g id="Writing">
	<rect x="270.1" y="197.9" class="st1" width="35.6" height="35.6"/>
	<path id="U_-_x_1_" class="st1" d="M288.3,306c-10.8-0.1-19.5,0-25.4,0c-5,0-10.1-0.1-15.1,0c-14.6,0.2-18.8,0.8-23.2-2.1
		c-4.9-3.3-6.6-8.5-6.9-9.5c-5.2-17.1,19.2-38.6,24.3-36c2.3,1.2-1,7.7,3.6,14c2.6,3.5,7.2,6.5,11.7,6c6.5-0.6,12.7-8.3,12.6-18.6
		c0.1-0.4,0.2-0.7,0.3-1.1C276.1,274.4,282.2,290.2,288.3,306z"/>
	<rect x="303.9" y="223.7" class="st1" width="40" height="39"/>
	<path id="U_-_y" class="st1" d="M243.1,305.8c-4.4,0-8.9,0.1-13.3,0.1c-3.3-0.4-7.4-1.5-10.2-4.8c-3.5-4-3.5-9.3-3.4-11.4
		c0.2-27.1,0-148,0-151c0-0.5,0-3.9,0-3.9c0.1,0-0.4,9.6,0.2,9.7c0.6,0.1-0.1-11.9,6.3-15.4c0.9-0.5,1.7-0.7,5.2-1
		c3.7-0.3,8.9-0.5,15.3-0.1C243.1,187.3,243.1,246.5,243.1,305.8z"/>
	<path class="st1" d="M359.1,211.1c-0.6-1.9-1.3-3.8-2.8-6.1c-2.5-3.9-5.3-5.2-6.7-5.9c-1.5-0.7-3-1-5.5-1.2c-2-0.2-4.7-0.2-8.1,0.2
		c-1.1,3.9-2.4,9.4-3.6,15.9c-0.6,3.1-1.3,7.3-1.9,12.8c-2,17.9-0.1,25.1,2.3,30.3c1.7,3.7,3.5,6.2,4.1,6.8
		c5.5,6.3,8.9,32.1,5.9,100.2c0,0,2.1,0,2.1,0c1,0,1.8,0,2.4,0c0.9,0,1.8,0,2,0c3.2-0.1,7.3-4.9,9-6.9c0.6-0.7,1.3-1.6,2.1-2.7
		c0,0,0,0,0,0c0-0.2,0-2.5,0-4.7c0.1-11.6,0-53.9,0-80c0-0.1-0.4-26.7,0.4-44c0-0.3,0-0.5,0-0.9C361,222.4,361.1,217.1,359.1,211.1z
		"/>
	<path id="A_-_x__x_-_Middle" class="st1" d="M360,306.4c-1.7,0.8-6.1,2.7-10,0.9c-4.6-2.2-5.8-8.2-6.3-10.6
		c-0.7-3.2-0.3-5.7-1.5-11.3l0,0c-0.3-1-0.7-2.2-1.4-3.6c-0.9-1.6-1.7-2.8-2.3-3.4c0,0-1.6-1.9-3.5-3.4c-2.2-1.7-8.9-4.2-18-4.2
		c-3.6-6.6-7.3-13.2-10.9-19.8h54C360.1,269.5,360.1,287.9,360,306.4z"/>
	<path id="A_-_x__x_-_Top" class="st1" d="M344.2,225h-53v-27c15.3,0,30.5,0,45.7-0.1C339.3,207,341.8,216,344.2,225z"/>
	<path id="Middle_4_" class="st2" d="M316.5,306.1c-9.5,0-19,0-28.5,0c-6.3,0-12.6,0-18.9-0.1c-0.3-48.1,0.8-83.3,2.1-90.1
		c1.1-5.4,4-9.3,4-9.3c2.1-2.8,4.5-4.4,5.4-5c2.4-1.5,4.8-2.3,6.5-2.7c5.3-1.3,11.6-1.1,16.1-1c3,0.1,7.6,0.1,13.3,0.1
		c0,2.2,0,22.2,0,24.4C316.6,243.4,316.5,285.1,316.5,306.1z"/>
	<path id="Foot_L" class="st1" d="M316.5,306.6c0-11.8,0-23.5,0-35.3c-2.3-0.1-13.1-0.5-20.6,7.1c0,0-6,6.1-7.3,15.5
		c-0.2,1.6-0.7,6.5-0.7,12.3c0,0.1,0,0.2,0,0.3"/>
	<path id="Mouth_R" class="st2" d="M315.2,230.1c10.2-0.1,20.4-0.3,30.6-0.4c0.1,15.8-13.4,28.8-30.3,29.1"/>
	<path id="Mouth_L" class="st1" d="M317,258.5c-16.1-0.2-29-12.9-29-28.6c9.7,0.1,19.4,0.1,29,0.1"/>
	<line id="Eye_L_1_" class="st3" x1="320.9" y1="215.4" x2="339.5" y2="215.4"/>
	<line id="Eye_L" class="st3" x1="330.3" y1="206.3" x2="330.3" y2="225"/>
	<line id="Eye_R_1_" class="st4" x1="292.1" y1="215.6" x2="310.8" y2="215.6"/>
	<line id="Eye_R" class="st4" x1="301.5" y1="206.5" x2="301.5" y2="225.2"/>
</g>
</svg>
